<?xml version="1.0" encoding="UTF-8"?>
<!DOCTYPE svg PUBLIC "-//W3C//DTD SVG 1.1//EN" "http://www.w3.org/Graphics/SVG/1.1/DTD/svg11.dtd">
<!-- Creator: CorelDRAW X7 -->
<svg xmlns="http://www.w3.org/2000/svg" xml:space="preserve" width="121.8mm" height="158.353mm" version="1.1" style="shape-rendering:geometricPrecision; text-rendering:geometricPrecision; image-rendering:optimizeQuality; fill-rule:evenodd; clip-rule:evenodd"
viewBox="0 0 3650 4745"
 xmlns:xlink="http://www.w3.org/1999/xlink">
 <defs>
  <style type="text/css">
   <![CDATA[
    .fil0 {fill:#9108AF}
   ]]>
  </style>
 </defs>
 <g id="Warstwa_x0020_1">
  <metadata id="CorelCorpID_0Corel-Layer"/>
  <path class="fil0" d="M185 3309l-1 -5 0 0c0,-2 -1,-4 -2,-5l0 -2 -1 -1c-3,-13 -7,-27 -10,-40 -11,-51 -16,-103 -19,-155 -1,-25 -1,-50 -1,-74 0,-1 0,-1 0,-2 0,-66 6,-132 16,-197 6,-41 -21,-80 -62,-87 -41,-6 -80,21 -86,62 -12,73 -19,147 -19,221 0,107 7,215 38,318l1 3 0 1c26,103 64,203 112,299l0 0c75,156 167,309 288,433 118,122 181,290 192,458l0 0 0 40c0,3 0,6 0,9l0 3c5,88 79,157 168,157l566 0c92,0 167,-75 167,-168l0 -56 17 2c88,7 177,8 265,3l16 0 0 51c0,93 75,168 168,168l566 0c93,0 168,-75 168,-168l0 -139c1,-42 12,-86 26,-126 28,-80 77,-150 140,-207l24 -21 1 -1c1,-2 3,-3 5,-5l1 -1 0 0c34,-38 66,-78 97,-118 64,-81 125,-164 182,-250 47,-73 92,-148 126,-227l4 -10 65 0c136,0 247,-111 247,-247l0 -422c0,-136 -111,-247 -247,-247l-71 0 -4 -10c-90,-237 -244,-444 -438,-607l-4 -3 -1 -5 0 0c-36,-124 0,-244 67,-350 37,-59 36,-132 -1,-190 -37,-59 -103,-90 -172,-81 -209,26 -403,111 -538,276l-7 8 -9 -3c-94,-26 -189,-44 -286,-56 -40,-5 -79,25 -84,66 -5,40 25,79 66,84 108,13 215,36 320,68 31,10 66,-2 85,-30 109,-161 282,-242 472,-265 11,-1 20,4 27,13l0 1 0 0c6,9 4,19 -1,28 -89,142 -131,306 -85,471 0,2 1,3 1,5l0 1 0 1 0 1c2,21 12,42 28,56l0 0c202,161 358,374 439,620 10,31 39,52 71,52l126 0c53,0 96,43 96,96l0 422c0,53 -43,97 -96,97l-119 0c-33,0 -63,21 -72,53 -13,45 -34,87 -56,128 -27,49 -56,96 -87,142 -76,114 -161,223 -250,328l-1 1 -21 19 -1 1 0 0c-80,73 -143,162 -181,264 -20,56 -34,119 -35,178l0 141c0,10 -7,17 -17,17l-566 0c-10,0 -17,-7 -17,-17l0 -133c0,-21 -9,-41 -25,-56l0 0 -1 -1c-15,-13 -37,-20 -57,-18 -143,15 -288,12 -431,-6 -21,-3 -43,4 -59,17l0 0 -1 1c-16,14 -26,35 -26,56l0 140c0,10 -8,17 -17,17l-566 0c-6,0 -12,-3 -15,-8l-3 -4 0 -47c0,-1 0,-2 0,-3l0 0 0 -1c-11,-204 -90,-409 -233,-557 -109,-112 -193,-250 -259,-391l0 -1 0 0c-1,-2 -2,-4 -3,-5l0 -1 0 0c-44,-83 -76,-172 -99,-263l-1 -2 0 -2z"/>
  <path class="fil0" d="M2225 533c0,-294 -240,-533 -534,-533 -294,0 -533,239 -533,533 0,295 239,534 533,534 294,0 534,-240 534,-534zm-534 383c-211,0 -382,-172 -382,-383 0,-211 171,-382 382,-382 212,0 383,171 383,382 0,212 -171,383 -383,383z"/>
  <path class="fil0" d="M782 1073c-427,0 -774,348 -774,775 0,427 347,774 774,774 427,0 775,-347 775,-774 0,-428 -348,-775 -775,-775zm0 1398c-344,0 -624,-279 -624,-623 0,-345 280,-624 624,-624 344,0 624,280 624,624 0,344 -280,623 -624,623z"/>
 </g>
</svg>
