<?xml version="1.0" encoding="UTF-8"?>
<!DOCTYPE svg PUBLIC "-//W3C//DTD SVG 1.1//EN" "http://www.w3.org/Graphics/SVG/1.1/DTD/svg11.dtd">
<!-- Creator: CorelDRAW X7 -->
<svg xmlns="http://www.w3.org/2000/svg" xml:space="preserve" width="129.784mm" height="129.869mm" version="1.1" style="shape-rendering:geometricPrecision; text-rendering:geometricPrecision; image-rendering:optimizeQuality; fill-rule:evenodd; clip-rule:evenodd"
viewBox="0 0 13385 13394"
 xmlns:xlink="http://www.w3.org/1999/xlink">
 <defs>
  <style type="text/css">
   <![CDATA[
    .fil0 {fill:#9108AF}
   ]]>
  </style>
 </defs>
 <g id="Warstwa_x0020_1">
  <metadata id="CorelCorpID_0Corel-Layer"/>
  <path class="fil0" d="M9935 3579l2755 724 695 -2755 -465 -122 -481 1838 -51 -82c-1219,-1978 -3366,-3182 -5696,-3182 -3698,0 -6692,3001 -6692,6697 0,3697 2994,6697 6692,6697 2373,0 4552,-1250 5758,-3283l-456 -220c-1121,1857 -3122,2997 -5300,2997 -3418,0 -6188,-2773 -6188,-6191 0,-3417 2767,-6194 6186,-6194 2203,0 4229,1167 5341,3063l50 86 -2026 -538 -122 465z"/>
  <polygon class="fil0" points="5831,2159 5831,7194 9066,8768 9285,8328 6323,6902 6323,2159 "/>
 </g>
</svg>
