<?xml version="1.0" encoding="UTF-8"?>
<!DOCTYPE svg PUBLIC "-//W3C//DTD SVG 1.1//EN" "http://www.w3.org/Graphics/SVG/1.1/DTD/svg11.dtd">
<!-- Creator: CorelDRAW X7 -->
<svg xmlns="http://www.w3.org/2000/svg" xml:space="preserve" width="122mm" height="146.357mm" version="1.1" style="shape-rendering:geometricPrecision; text-rendering:geometricPrecision; image-rendering:optimizeQuality; fill-rule:evenodd; clip-rule:evenodd"
viewBox="0 0 8513 10212"
 xmlns:xlink="http://www.w3.org/1999/xlink">
 <defs>
  <style type="text/css">
   <![CDATA[
    .fil0 {fill:#9108AF}
   ]]>
  </style>
 </defs>
 <g id="Warstwa_x0020_1">
  <metadata id="CorelCorpID_0Corel-Layer"/>
  <path class="fil0" d="M4141 10172c33,26 74,40 115,40 10,0 20,-1 30,-2 31,-5 61,-18 86,-39 2593,-2000 4141,-5149 4141,-8424l0 -1137c0,-90 -66,-167 -156,-181l-1480 -228c-1736,-268 -3505,-268 -5241,0l-1481 228c-89,14 -155,91 -155,181l0 1137c0,3275 1548,6424 4141,8425zm4005 -9405l0 980c0,3107 -1443,6099 -3872,8035l-18 14 -17 -14c-2429,-1936 -3873,-4928 -3873,-8035l0 -980 1326 -204c1699,-262 3430,-262 5129,0l1325 204z"/>
  <path class="fil0" d="M4396 8002c-70,73 -68,189 5,259 35,32 80,51 127,51 50,0 98,-21 132,-57 1129,-1181 1881,-2640 2251,-4227 118,-504 197,-1019 231,-1536 10,-150 16,-299 16,-449 0,-57 0,-114 -3,-171 -6,-99 -95,-177 -194,-172 -100,5 -178,94 -172,194 3,53 3,107 3,161 -1,143 -7,286 -16,429 -33,495 -109,988 -223,1471 -356,1520 -1076,2916 -2157,4047z"/>
 </g>
</svg>
