<?xml version="1.0" encoding="UTF-8"?>
<!DOCTYPE svg PUBLIC "-//W3C//DTD SVG 1.1//EN" "http://www.w3.org/Graphics/SVG/1.1/DTD/svg11.dtd">
<!-- Creator: CorelDRAW X7 -->
<svg xmlns="http://www.w3.org/2000/svg" xml:space="preserve" width="724px" height="152px" version="1.1" style="shape-rendering:geometricPrecision; text-rendering:geometricPrecision; image-rendering:optimizeQuality; fill-rule:evenodd; clip-rule:evenodd"
viewBox="0 0 23830 5000"
 xmlns:xlink="http://www.w3.org/1999/xlink">
 <defs>
  <style type="text/css">
   <![CDATA[
    .fil1 {fill:#2E2E2E}
    .fil0 {fill:#9B0050}
   ]]>
  </style>
 </defs>
 <g id="Warstwa_x0020_1">
  <metadata id="CorelCorpID_0Corel-Layer"/>
  <g id="_1814030741872">
   <path class="fil0" d="M2769 680c-1226,284 -2145,1405 -2145,2747 0,302 48,591 134,867 -466,-457 -758,-1090 -758,-1792 0,-1380 1121,-2502 2501,-2502 90,0 182,5 268,15 602,63 1139,342 1536,755 -289,-106 -598,-161 -922,-161 324,0 633,55 922,161 -289,-106 -598,-161 -922,-161 -210,0 -414,24 -614,71z"/>
   <path class="fil0" d="M2481 5000l43 0 4 0c80,-1 163,-6 241,-16 221,-23 434,-75 633,-152 62,-23 125,-52 186,-81 835,-405 1412,-1258 1412,-2249l0 -6c0,-42 -3,-84 -3,-128 -2,-44 -7,-88 -10,-133 -47,-428 -200,-822 -433,-1159 -299,-152 -632,-235 -984,-235 -281,0 -552,54 -801,152 -892,351 -1533,1276 -1533,2363 0,568 178,1095 475,1518 243,80 502,124 770,126z"/>
  </g>
  <g id="_629131968">
   <path class="fil1" d="M15684 1000c0,1088 1,2176 0,3265l0 0c-251,0 -504,0 -756,0l0 0c0,-1089 0,-2177 0,-3265 -412,0 -824,0 -1235,0l0 0 0 -265 3222 0 0 265 0 0c-410,0 -820,0 -1231,0z"/>
   <path class="fil1" d="M9405 4297l-2506 -2387 0 1556c0,267 2,533 0,799 -240,0 -481,0 -721,0 0,-1199 0,-2397 0,-3596l2606 2416 0 -1368 0 0 0 -40 0 -388c0,-185 0,-370 0,-554l0 0 621 0 0 3562z"/>
   <path class="fil1" d="M10443 1158c348,-329 817,-494 1406,-494 589,0 1059,165 1406,494 348,330 522,777 522,1342 0,565 -174,1012 -522,1342 -347,330 -817,494 -1406,494 -589,0 -1058,-164 -1406,-494 -348,-330 -523,-777 -523,-1342 0,-565 175,-1012 523,-1342zm583 2529c201,292 475,437 821,437 346,0 620,-145 823,-437 202,-290 304,-686 304,-1187 0,-501 -102,-897 -304,-1188 -203,-291 -477,-436 -823,-436 -346,0 -620,145 -821,436 -201,291 -301,687 -301,1188 0,501 100,897 301,1187z"/>
   <path class="fil1" d="M21359 3419c97,611 419,705 1053,705 358,0 780,-148 780,-569 0,-252 -247,-405 -439,-521l-956 -580c-355,-218 -532,-487 -532,-806 0,-285 124,-564 348,-742 203,-161 475,-242 816,-242 372,0 708,70 1074,126l1 365c-364,-219 -404,-279 -883,-279 -286,0 -493,80 -621,242 -66,77 -99,155 -99,232 0,77 17,143 50,197 51,87 162,181 334,282l1050 625c330,199 495,458 495,777 0,357 -133,631 -399,820 -266,190 -618,285 -1057,285 -249,0 -479,-27 -690,-83 -210,-56 -374,-156 -473,-249 -78,-241 9,-374 148,-585z"/>
   <path class="fil1" d="M20570 1745l0 1244c0,414 -129,742 -389,984 -259,242 -613,363 -1064,363 -531,0 -938,-118 -1220,-356 -283,-237 -424,-566 -424,-986l0 -1359c0,-300 0,-600 0,-900l0 0c252,0 504,0 757,0l0 0c0,441 0,883 0,1325l0 894c0,356 87,639 261,848 176,208 416,312 722,312 305,0 549,-98 727,-295 177,-197 269,-463 272,-799l0 -1247c0,-346 0,-692 0,-1038l0 0c119,0 239,0 358,0l0 0c0,336 0,673 0,1010z"/>
  </g>
 </g>
</svg>
