<svg width="16" height="22" viewBox="0 0 16 22" fill="none" xmlns="http://www.w3.org/2000/svg">
<path d="M7.74194 0C3.47298 0 0 3.37005 0 7.51249C0 12.5551 7.09805 20.7955 7.40029 21.1438C7.48467 21.2412 7.60896 21.2975 7.74004 21.2981C7.74069 21.2981 7.74129 21.2981 7.74194 21.2981C7.87231 21.2981 7.9963 21.2428 8.08116 21.1466C8.38339 20.8042 15.4839 12.7 15.4839 7.51249C15.4838 3.37005 12.0109 0 7.74194 0ZM7.74462 20.1827C6.31909 18.4622 0.893301 11.6417 0.893301 7.51249C0.893301 3.84807 3.9656 0.866826 7.74194 0.866826C11.5183 0.866826 14.5906 3.84807 14.5906 7.51249C14.5905 11.7594 9.1742 18.4824 7.74462 20.1827Z" fill="#9108AF"/>
<path d="M7.74165 4.17767C5.9267 4.17767 4.4502 5.61042 4.4502 7.37158C4.4502 9.13274 5.9267 10.5655 7.74165 10.5655C9.5566 10.5655 11.0331 9.13274 11.0331 7.37158C11.0331 5.61042 9.5566 4.17767 7.74165 4.17767ZM7.74165 9.69861C6.41933 9.69861 5.3435 8.65472 5.3435 7.37152C5.3435 6.08833 6.41927 5.04444 7.74165 5.04444C9.06404 5.04444 10.1398 6.08833 10.1398 7.37152C10.1398 8.65472 9.06392 9.69861 7.74165 9.69861Z" fill="#9108AF"/>
</svg>
